<svg viewBox="0 0 97 97" fill="none" xmlns="http://www.w3.org/2000/svg">
    <g clip-path="url(#clip0_218_2)">
        <path d="M48.49 96.48C74.9941 96.48 96.48 74.9941 96.48 48.49C96.48 21.9859 74.9941 0.5 48.49 0.5C21.9859 0.5 0.5 21.9859 0.5 48.49C0.5 74.9941 21.9859 96.48 48.49 96.48Z" fill="url(#paint0_radial_218_2)" stroke="url(#paint1_linear_218_2)" stroke-miterlimit="10"/>
        <path d="M48.49 86.83C69.6646 86.83 86.83 69.6646 86.83 48.49C86.83 27.3154 69.6646 10.15 48.49 10.15C27.3154 10.15 10.15 27.3154 10.15 48.49C10.15 69.6646 27.3154 86.83 48.49 86.83Z" fill="url(#paint2_radial_218_2)" stroke="url(#paint3_linear_218_2)" stroke-miterlimit="10"/>
        <path d="M73.24 62.79C71.31 61.44 70.48 59 70 56.69C69.52 54.38 69.32 51.94 68.13 49.9C67.323 48.6735 66.2746 47.6242 65.0488 46.8161C63.8229 46.008 62.4453 45.4582 61 45.2C58.0918 44.7133 55.1297 44.6359 52.2 44.97C53.5268 43.3892 55.2367 42.175 57.1665 41.4434C59.0963 40.7118 61.1815 40.4872 63.2228 40.7912C65.2641 41.0951 67.1934 41.9174 68.8263 43.1795C70.4593 44.4415 71.7413 46.1012 72.55 48C72.76 48.48 73.19 49.09 73.66 48.86C74.13 48.63 73.99 48.16 73.93 47.77C73.6417 45.8303 73.7445 43.8524 74.2322 41.953C74.72 40.0535 75.5828 38.2709 76.77 36.71C75.4 36.58 74.62 38.18 73.64 39.15C72.9157 39.7534 72.0659 40.1877 71.1525 40.4213C70.2391 40.6548 69.2851 40.6817 68.36 40.5C66.49 40.27 64.69 39.62 62.81 39.42C57.62 38.85 52.52 41.88 49.35 46.04C48.81 43.29 51.06 40.65 53.65 39.59C56.24 38.53 59.13 38.59 61.91 38.2C64.9646 37.8192 67.9407 36.9621 70.73 35.66C72.09 35.1279 73.26 34.2016 74.09 33C75.09 31.19 74.19 30.82 72.95 29.71C70.71 27.71 70.11 24.16 67.25 22.81C67.0645 22.6973 66.8582 22.6233 66.6434 22.5923C66.4286 22.5614 66.2097 22.5742 66 22.63C65.6483 22.8233 65.3575 23.1107 65.16 23.46C64.2843 24.6431 63.1208 25.5828 61.78 26.19C58.87 27.5 55.39 27.13 52.55 28.57C51.2193 29.3353 50.0689 30.378 49.1769 31.6272C48.2848 32.8764 47.672 34.303 47.38 35.81C46.8042 38.8382 46.6762 41.9346 47 45C45.3566 43.5629 44.1249 41.7145 43.4313 39.6445C42.7376 37.5744 42.607 35.3571 43.0528 33.22C43.4985 31.0828 44.5046 29.1026 45.9679 27.4824C47.4312 25.8622 49.2991 24.6604 51.38 24C50.75 23.14 49.47 23.25 48.38 23.32C44.9414 23.5347 41.5455 22.4657 38.85 20.32C38.61 21.7 40.26 22.53 41.25 23.51C41.8706 24.2465 42.3155 25.1145 42.5512 26.0483C42.7868 26.9821 42.8069 27.9573 42.61 28.9C42.36 30.8 41.69 32.64 41.5 34.55C40.99 39.69 44.12 44.62 48.16 47.84C45.77 48.25 43.39 46.62 42.16 44.51C41.0956 42.323 40.4931 39.9401 40.39 37.51C40.1923 34.2392 39.567 31.0084 38.53 27.9C37.9153 25.9593 36.7263 24.2507 35.12 23C34.8314 22.7552 34.4818 22.5933 34.1084 22.5317C33.7351 22.4701 33.352 22.511 33 22.65C32.6409 22.9162 32.344 23.2575 32.13 23.65C30.35 26.16 26.7 26.84 25.03 29.42C24.8671 29.6322 24.7508 29.8764 24.6888 30.1366C24.6267 30.3968 24.6203 30.6672 24.67 30.93C24.85 31.5 25.43 31.84 25.92 32.19C27.85 33.62 28.66 36.09 29.13 38.45C29.6 40.81 29.88 43.27 31.13 45.32C31.957 46.5161 33.0162 47.5335 34.2446 48.3117C35.4729 49.09 36.8453 49.6131 38.28 49.85C41.1665 50.2947 44.1 50.3452 47 50C45.6824 51.5763 43.9822 52.7879 42.0622 53.5188C40.1421 54.2497 38.0666 54.4754 36.0344 54.1743C34.0021 53.8733 32.0812 53.0555 30.4555 51.7993C28.8299 50.5431 27.554 48.8906 26.75 47C26.48 46.39 25.75 45.63 25.32 46.15C25.2506 46.2719 25.2076 46.407 25.1939 46.5465C25.1801 46.686 25.1958 46.8269 25.24 46.96C25.5674 48.9444 25.4749 50.9754 24.9685 52.9218C24.4621 54.8683 23.553 56.6868 22.3 58.26C23.72 58.37 24.56 56.75 25.6 55.77C27.09 54.37 29.36 54.2 31.38 54.51C33.4 54.82 35.38 55.51 37.38 55.64C42.38 55.86 46.67 52.41 50.11 48.82C50.11 52.3 46.88 55.01 43.55 56.03C40.22 57.05 36.67 56.89 33.24 57.46C29.81 58.03 26.24 59.65 24.83 62.85C24.6957 63.113 24.6271 63.4047 24.63 63.7C24.7 64.44 25.45 64.86 26.04 65.3C28.49 67.14 29.11 70.94 31.88 72.3C32.2039 72.4854 32.5821 72.5526 32.95 72.49C33.52 72.35 33.84 71.77 34.17 71.29C35.55 69.29 38.03 68.48 40.38 68.01C42.73 67.54 45.2 67.28 47.25 66.01C48.4634 65.1901 49.4983 64.1331 50.2923 62.9025C51.0863 61.672 51.623 60.2935 51.87 58.85C52.345 55.9643 52.4257 53.0274 52.11 50.12C53.7714 51.5356 55.0207 53.3726 55.7267 55.4379C56.4327 57.5033 56.5694 59.7207 56.1223 61.857C55.6751 63.9934 54.6608 65.9699 53.1858 67.5788C51.7108 69.1876 49.8296 70.3694 47.74 71C48.05 71.85 49.22 71.84 50.11 71.75C53.7764 71.4228 57.431 72.4945 60.34 74.75C60.4 73.31 58.77 72.49 57.79 71.42C56.44 69.95 56.27 67.74 56.57 65.77C56.87 63.8 57.57 61.89 57.7 59.9C58 55 54.77 50.49 51 47.24C54.08 46.79 56.82 49.55 57.79 52.51C58.76 55.47 58.53 58.67 59 61.75C59.4793 64.8716 60.6625 67.8433 62.46 70.44C63.31 71.66 64.78 72.91 66.11 72.24C66.6647 71.8615 67.1374 71.3752 67.5 70.81C69.4 68.51 73.03 67.87 74.29 65.17C74.4754 64.8388 74.5424 64.4544 74.48 64.08C74.37 63.48 73.75 63.15 73.24 62.79ZM72.6 41.31C72.42 41.99 72.26 42.58 72.09 43.25L70.09 41.55L72.6 41.31ZM45.21 25.1L43.62 27C43.54 26.1 43.46 25.31 43.38 24.41L45.21 25.1ZM30.68 40C30.4484 38.0836 30.1145 36.1809 29.68 34.3C29.11 32.47 27.73 30.68 25.82 30.42C26.3105 29.4485 27.1236 28.6778 28.12 28.24C28.4001 28.0957 28.7195 28.0466 29.03 28.1C29.336 28.197 29.6071 28.3812 29.81 28.63C31.7658 30.6801 33.2144 33.1596 34.04 35.87C34.1651 34.3376 33.9351 32.797 33.368 31.3678C32.8009 29.9387 31.9118 28.6597 30.77 27.63C32.0306 26.9276 33.046 25.8563 33.68 24.56C35.6 26.49 36.43 29.65 37.13 32.21C37.54 33.7 37.87 35.21 38.13 36.74C38.22 37.23 38.49 40.6 38.84 40.74L35.76 39.39C36.1061 39.2345 36.4105 38.9995 36.6486 38.704C36.8866 38.4086 37.0516 38.0612 37.13 37.69C35.0043 38.2517 33.0522 39.3344 31.45 40.84C32.23 41.45 33.3 40.23 34.28 40.4C34.5672 40.4829 34.8228 40.6503 35.0136 40.8803C35.2044 41.1104 35.3216 41.3925 35.35 41.69C35.4098 42.2818 35.4098 42.8782 35.35 43.47C35.3336 44.4788 35.5863 45.4737 36.0819 46.3525C36.5775 47.2312 37.2983 47.9621 38.17 48.47C34.3 47.65 31.48 44 30.68 40ZM44.92 49.3C43.7165 49.5156 42.4777 49.4172 41.3233 49.0143C40.169 48.6114 39.138 47.9177 38.33 47C37.576 46.1325 37.1481 45.0291 37.12 43.88C37.06 43.08 37.06 42.29 37.02 41.37C38.49 42.3 40.02 43.09 40.97 44.59C42.0186 46.1499 43.5293 47.3423 45.29 48L46.73 48.59C46.73 48.66 46.73 48.73 46.73 48.8C46.1378 49.0047 45.5333 49.1717 44.92 49.3V49.3ZM26.51 53.69C26.74 53.05 26.94 52.46 27.16 51.84L29 53.44L26.51 53.69ZM48.51 36.18C49.35 32.36 52.88 29.49 56.71 28.67C58.64 28.25 60.66 28.27 62.55 27.67C64.44 27.07 66.3 25.72 66.55 23.76C67.65 24.2 69.25 25.76 68.77 27.06C68.4935 27.6678 68.0539 28.1871 67.5 28.56C65.5583 30.0889 63.3562 31.2543 61 32C62.5632 32.1473 64.1392 31.9244 65.6003 31.3493C67.0614 30.7743 68.3665 29.8632 69.41 28.69C70.137 29.9785 71.2297 31.0225 72.55 31.69C67.79 34.86 61.95 35.84 56.3 36.69L57.63 33.69C57.7906 34.0284 58.0311 34.3226 58.3308 34.5473C58.6304 34.772 58.9802 34.9205 59.35 34.98C58.7516 32.8591 57.6661 30.9072 56.18 29.28C55.54 30.12 56.88 31.28 56.61 32.28C56.5097 32.5366 56.3394 32.7598 56.1183 32.9242C55.8973 33.0887 55.6346 33.1877 55.36 33.21C54.8145 33.2599 54.2655 33.2599 53.72 33.21C52.6722 33.1778 51.6354 33.4317 50.721 33.9444C49.8066 34.4571 49.0491 35.2092 48.53 36.12L48.51 36.18ZM48.36 44.82C47.9162 43.9299 47.6629 42.957 47.6164 41.9635C47.5699 40.97 47.7312 39.9777 48.09 39.05C49.25 35.9 51.32 34.81 55.63 34.97C54.7803 36.6067 53.5739 38.0317 52.1 39.14C50.713 40.0859 49.6624 41.4481 49.1 43.03C48.89 43.57 48.67 44.11 48.39 44.82H48.36ZM53.95 69.82C54.36 69.36 54.88 68.75 55.49 68.05C55.57 68.91 55.65 69.69 55.73 70.58L53.95 69.82ZM45.44 65.28C43.15 66.34 40.55 66.36 38.1 66.9C35.65 67.44 33.05 68.78 32.34 71.19C31.4811 70.7942 30.7902 70.1069 30.39 69.25C30.278 68.7896 30.2873 68.3081 30.417 67.8524C30.5467 67.3967 30.7924 66.9824 31.13 66.65C31.819 66.0028 32.6138 65.4786 33.48 65.1L38.08 62.8C34.98 63.11 31.47 63.7 29.75 66.31C28.997 64.9961 27.8783 63.9295 26.53 63.24V63.24C31.39 60.17 37.22 59.12 42.88 58.14L41.52 61.23C41.3614 60.8893 41.1216 60.5926 40.8218 60.366C40.5219 60.1394 40.1711 59.9897 39.8 59.93C40.4237 62.0379 41.5179 63.9766 43 65.6C43.67 64.83 42.37 63.72 42.55 62.71C42.6321 62.427 42.7968 62.1749 43.0231 61.986C43.2493 61.7972 43.5268 61.6802 43.82 61.65C44.4087 61.595 45.0013 61.595 45.59 61.65C46.5017 61.6391 47.3996 61.4263 48.2192 61.0269C49.0388 60.6274 49.7597 60.0513 50.33 59.34C50.0425 60.6419 49.4528 61.8579 48.6086 62.8898C47.7643 63.9216 46.6892 64.7404 45.47 65.28H45.44ZM51.37 52.28C51.5649 53.4862 51.4496 54.7222 51.035 55.8716C50.6204 57.021 49.9201 58.046 49 58.85C48.2142 59.5112 47.2267 59.885 46.2 59.91L43.5 60.05C44.21 58.5538 45.2534 57.2402 46.55 56.21C48.1852 55.1415 49.4415 53.5842 50.14 51.76L50.72 50.37H50.91C51.1244 50.9788 51.2883 51.6043 51.4 52.24L51.37 52.28ZM58.16 50.46C57.1716 48.898 55.716 47.6872 54 47L52.47 46.38V46.12C53.2464 45.8919 54.0385 45.7214 54.84 45.61C55.9978 45.4893 57.1675 45.6593 58.2431 46.1046C59.3187 46.5498 60.2662 47.2563 61 48.16C61.4232 48.6949 61.7052 49.3277 61.82 50C62.03 51.15 62.06 52.34 62.17 53.66C60.66 52.66 59.14 51.9 58.19 50.42L58.16 50.46ZM70.83 66.76C70.5455 66.8782 70.2323 66.9095 69.93 66.85C69.6299 66.7369 69.3669 66.5431 69.17 66.29C67.288 64.1882 65.8886 61.7 65.07 59C64.921 60.55 65.1436 62.1133 65.7192 63.5602C66.2948 65.007 67.207 66.2959 68.38 67.32C67.0676 67.9924 66.0133 69.0784 65.38 70.41C61.78 66 61.66 59.72 60.1 54.19L63.21 55.53C62.8935 55.7116 62.6209 55.9608 62.4117 56.2598C62.2026 56.5589 62.062 56.9004 62 57.26C64.09 56.6542 66.0242 55.6035 67.67 54.18C66.89 53.35 65.5 54.87 64.45 54.43C63.62 54.08 63.73 52.89 63.79 51.99C63.8488 50.9118 63.6218 49.8371 63.1319 48.8749C62.6419 47.9126 61.9065 47.0968 61 46.51C65.19 47.59 67.82 51.13 68.47 55.28C68.6207 57.1583 68.9557 59.0172 69.47 60.83C69.7455 61.7361 70.2428 62.5592 70.9169 63.2245C71.5909 63.8898 72.4204 64.3764 73.33 64.64C72.7768 65.6022 71.9023 66.3386 70.86 66.72L70.83 66.76Z" fill="#231F20"/>
        <path d="M51.06 65.52C49.28 69.03 46.27 70.63 42.63 71.72C43.57 72.46 44.39 73.14 45.25 73.78C46.0815 74.374 47.0271 74.7891 48.0271 74.9991C49.0271 75.2091 50.0599 75.2094 51.06 75C51.853 74.8966 52.6507 74.8332 53.45 74.81C53.6986 74.8215 53.9459 74.8516 54.19 74.9C52.7684 76.0355 51.0092 76.6653 49.19 76.69C48.2035 76.7153 47.2222 76.5395 46.3059 76.1733C45.3896 75.8071 44.5574 75.2582 43.86 74.56C43.07 73.82 42.38 72.97 41.62 72.2C41.5368 72.1245 41.4385 72.0676 41.3316 72.0331C41.2247 71.9986 41.1116 71.9873 41 72C39.7493 72.2766 38.5196 72.6408 37.32 73.09C36.6362 73.4858 36.0074 73.97 35.45 74.53C35.31 74.64 35.06 74.83 35.01 74.79C34.96 74.75 34.66 74.42 34.7 74.29C34.8079 73.7735 34.9969 73.2774 35.26 72.82C36.1723 71.5115 37.5245 70.5746 39.07 70.18C40.645 69.6781 42.2613 69.3167 43.9 69.1C46.3861 68.7137 48.6879 67.5558 50.48 65.79C50.56 65.7 50.65 65.62 50.73 65.54C50.81 65.46 50.78 65.53 51.06 65.52Z" fill="#231F20"/>
        <path d="M31.5 48.67C29.59 48.29 28.5 46.88 27.5 45.44C26.6128 43.8968 25.8213 42.3004 25.13 40.66C24.32 41.82 23.42 43 22.64 44.26C21.9517 45.5561 21.7259 47.0483 22 48.49C22.1 49.41 22.19 50.33 22.26 51.24C22.2771 51.4764 22.225 51.7127 22.11 51.92C21.4565 51.1339 20.9689 50.2236 20.6767 49.244C20.3845 48.2643 20.2938 47.2357 20.41 46.22C20.5729 44.6397 21.2511 43.1568 22.34 42C23.11 41.17 24.01 40.45 24.79 39.64C24.891 39.517 24.9653 39.3744 25.0084 39.2212C25.0514 39.068 25.0622 38.9076 25.04 38.75C24.8404 37.6565 24.5357 36.5849 24.13 35.55C23.7028 34.7989 23.193 34.0978 22.61 33.46C22.5 33.3 22.41 33.12 22.31 32.95C22.51 32.86 22.75 32.64 22.92 32.68C23.3847 32.7875 23.83 32.9663 24.24 33.21C25.5029 34.1346 26.4382 35.4377 26.91 36.93C27.5242 38.6656 27.9075 40.4745 28.05 42.31C28.4007 44.5416 29.4512 46.6041 31.05 48.2C31.24 48.35 31.36 48.51 31.5 48.67Z" fill="#231F20"/>
        <path d="M76.83 62C76.73 62.45 76.33 62.43 75.9 62.29C74.7543 61.8885 73.8013 61.0712 73.23 60C72.0594 58.069 71.3732 55.8836 71.23 53.63C71.0108 51.0522 69.8964 48.6323 68.08 46.79L67.88 46.58L67.63 46.24L67.74 46.05C68.3587 46.3645 68.9507 46.729 69.51 47.14C71.5296 48.9081 72.9573 51.2539 73.6 53.86C73.6 53.97 73.67 54.08 73.71 54.2C73.75 54.32 73.91 54.2 73.94 54.2C74.82 52.99 75.77 51.81 76.56 50.54C77.35 49.27 77.28 47.54 77.09 46C77 45.19 76.96 44.36 76.91 43.54C76.9298 43.3585 76.9599 43.1782 77 43C77.8389 43.8474 78.3854 44.9404 78.56 46.12C78.8885 47.3179 78.9028 48.5803 78.6015 49.7854C78.3002 50.9904 77.6936 52.0976 76.84 53C76.05 53.91 75.09 54.66 74.22 55.49C74.157 55.5522 74.1082 55.6273 74.0771 55.7102C74.046 55.7931 74.0334 55.8817 74.04 55.97C74.3412 57.3277 74.732 58.664 75.21 59.97C75.6658 60.7098 76.2098 61.3914 76.83 62Z" fill="#231F20"/>
        <path d="M48.17 29.24C49.93 25.99 52.84 24.29 56.54 23.29C55.54 22.5 54.63 21.76 53.68 21.08C52.8173 20.5097 51.8479 20.1199 50.8305 19.9343C49.8131 19.7487 48.7686 19.7711 47.76 20C46.91 20.13 46.05 20.13 45.07 20.21C45.63 19.14 46.59 19.01 47.39 18.73C48.7524 18.208 50.2387 18.1003 51.6621 18.4206C53.0855 18.7409 54.3825 19.4748 55.39 20.53C56.15 21.23 56.79 22.06 57.52 22.79C57.6258 22.8747 57.7478 22.937 57.8784 22.9731C58.0091 23.0092 58.1457 23.0183 58.28 23C59.457 22.7547 60.6136 22.4204 61.74 22C62.4006 21.6158 63.0118 21.1524 63.56 20.62C63.7632 20.4915 63.9736 20.3747 64.19 20.27C64.26 20.53 64.43 20.81 64.38 21.04C64.2139 21.6494 63.9227 22.2175 63.525 22.7081C63.1273 23.1988 62.6318 23.6013 62.07 23.89C60.2013 25.0295 58.0841 25.6986 55.9 25.84C53.1736 26.0449 50.6162 27.2399 48.71 29.2C48.603 29.2947 48.4894 29.3815 48.37 29.46L48.17 29.24Z" fill="#231F20"/>
    </g>
    <defs>
        <radialGradient id="paint0_radial_218_2" cx="0" cy="0" r="1" gradientUnits="userSpaceOnUse" gradientTransform="translate(48.49 48.49) scale(47.99)">
            <stop stop-color="#E2836F"/>
            <stop offset="1" stop-color="#DC5950"/>
        </radialGradient>
        <linearGradient id="paint1_linear_218_2" x1="-8.75585e-09" y1="48.49" x2="96.97" y2="48.49" gradientUnits="userSpaceOnUse">
            <stop offset="0.68" stop-color="#E2836F"/>
            <stop offset="1" stop-color="#DC5950"/>
        </linearGradient>
        <radialGradient id="paint2_radial_218_2" cx="0" cy="0" r="1" gradientUnits="userSpaceOnUse" gradientTransform="translate(30.44 9.03999) scale(80.33)">
            <stop stop-color="#DC5950"/>
            <stop offset="1" stop-color="#E2836F"/>
        </radialGradient>
        <linearGradient id="paint3_linear_218_2" x1="9.63999" y1="48.49" x2="87.33" y2="48.49" gradientUnits="userSpaceOnUse">
            <stop offset="0.68" stop-color="#E2836F"/>
            <stop offset="1" stop-color="#DC5950"/>
        </linearGradient>
        <clipPath id="clip0_218_2">
            <rect width="96.97" height="96.97" fill="white"/>
        </clipPath>
    </defs>
</svg>
