<svg viewBox="0 0 32 32" fill="none" xmlns="http://www.w3.org/2000/svg">
    <path d="M27.6627 26.5387C27.5021 26.5978 27.3329 26.6317 27.1723 26.5894C27.0032 26.5387 26.8764 26.4119 26.758 26.2852C25.7265 25.1527 24.9487 23.7921 24.5006 22.33C24.323 24.0202 25.0163 25.7781 26.3099 26.8852C25.5997 27.2486 25.0163 27.8571 24.6781 28.5754C22.6912 26.133 22.6321 22.7187 21.7781 19.6848C22.3446 19.9299 22.9195 20.1749 23.486 20.42C23.1394 20.6144 22.8857 20.9694 22.8265 21.3666C23.9679 21.037 25.0332 20.4538 25.9294 19.6848C25.5067 19.2284 24.7458 20.0651 24.1709 19.82C23.7143 19.6256 23.7734 18.9749 23.8073 18.4847C23.8833 17.31 23.2662 16.1099 22.2685 15.4845C24.5598 16.0761 25.9971 18.0199 26.3606 20.2848C26.5213 21.3074 26.572 22.3553 26.9355 23.3272C27.2906 24.2991 28.0347 25.2034 29.0492 25.4147C28.728 25.9218 28.2292 26.3359 27.6627 26.5387M20.7213 17.6142C20.1548 16.7438 19.3685 16.1353 18.4131 15.7465C18.1341 15.6366 17.8551 15.5183 17.5761 15.4085C17.5676 15.3578 17.5676 15.3155 17.5592 15.2648C17.9904 15.1718 18.4216 15.0197 18.8527 14.9859C20.2055 14.8845 21.3723 15.3324 22.2516 16.3803C22.4799 16.6508 22.649 17.0226 22.7166 17.3691C22.835 18.003 22.8434 18.6453 22.911 19.3721C22.074 18.8397 21.2455 18.4255 20.7213 17.6142M17.0096 18.6115C17.1702 20.0313 16.7813 21.2651 15.6822 22.2286C15.2425 22.6173 14.7183 22.7695 14.1519 22.8033C13.6784 22.8286 13.1965 22.854 12.6807 22.8793C13.1458 22.0934 13.5769 21.2905 14.3548 20.7834C15.2764 20.1749 15.9105 19.3552 16.3163 18.3495C16.4178 18.0959 16.5277 17.8424 16.6291 17.5889C16.6629 17.5889 16.7052 17.5804 16.739 17.5804C16.8236 17.9185 16.9673 18.2565 17.0096 18.6115M13.7545 25.7527C12.5032 26.3274 11.0828 26.3443 9.73849 26.6401C8.39417 26.9359 6.97373 27.6711 6.58481 28.9895C6.14516 28.7191 5.68018 28.4149 5.51954 27.9247C5.3589 27.4345 5.57026 26.8852 5.92536 26.5049C6.28046 26.1246 6.75395 25.8879 7.21051 25.6598C8.04753 25.2372 8.893 24.8146 9.73002 24.4005C8.03061 24.5696 6.11135 24.8992 5.17287 26.319C4.76704 25.6006 4.14137 25.009 3.41425 24.6372C3.4058 24.6372 3.39738 24.6287 3.39738 24.6287C6.06064 22.9469 9.24808 22.3807 12.351 21.8398C12.0973 22.4061 11.8522 22.9723 11.607 23.5385C11.4379 23.1667 11.0743 22.8878 10.6685 22.8286C10.9982 23.978 11.5985 25.0513 12.4017 25.9471C12.7737 25.5245 12.0635 24.9161 12.1566 24.3667C12.2157 24.0456 12.537 23.8343 12.8583 23.7836C13.1796 23.7329 13.5008 23.792 13.8306 23.8005C14.9043 23.8343 15.7329 23.2765 16.4262 22.5328C16.1979 23.8935 14.9974 25.178 13.7545 25.7527M18.4215 28.2374C18.6414 27.9838 18.9288 27.6458 19.267 27.2655C19.3093 27.7388 19.3516 28.1613 19.4023 28.6515C19.0388 28.4994 18.7344 28.3641 18.4215 28.2374M15.3609 14.5464C14.8452 13.4647 14.8367 12.4167 15.2087 11.3941C15.8428 9.67011 16.9758 9.07852 19.3431 9.16303C18.7767 10.042 18.2863 10.8786 17.407 11.4449C16.6292 11.9435 16.0965 12.7041 15.7498 13.5746C15.6315 13.8704 15.5131 14.1577 15.3609 14.5464M15.4455 9.82223C15.9105 7.72633 17.8382 6.16286 19.935 5.71494C20.9918 5.48676 22.0994 5.50367 23.1309 5.19097C24.1708 4.87828 25.1854 4.12611 25.3292 3.05281C25.9295 3.28944 26.8088 4.14301 26.5467 4.86137C26.4198 5.19941 26.1324 5.45295 25.8534 5.68113C24.788 6.5178 23.5621 7.15164 22.2685 7.5573C23.9764 7.73477 25.7519 7.04178 26.8764 5.7403C27.2653 6.4502 27.874 7.04178 28.5927 7.40518C25.9886 9.13768 22.7842 9.67856 19.6982 10.1687C19.9434 9.6194 20.1886 9.07006 20.4253 8.52073C20.5944 8.89259 20.958 9.16304 21.3639 9.23065C21.0426 8.07283 20.4423 6.99107 19.6306 6.10369C19.2755 6.56851 20.0111 7.20235 19.8589 7.76013C19.7828 8.04747 19.4784 8.22495 19.174 8.27566C18.8781 8.31791 18.5737 8.26721 18.2694 8.2503C17.128 8.1996 15.9866 8.84189 15.4286 9.84758C15.437 9.83068 15.437 9.83068 15.4455 9.82223ZM3.38045 19.4059C3.50727 19.0509 3.61717 18.7382 3.73554 18.3917C4.03991 18.6537 4.37813 18.9411 4.76705 19.2707C4.28513 19.3129 3.84547 19.3552 3.38045 19.4059ZM13.4586 17.0057C12.0551 17.2001 10.8376 16.8198 9.85681 15.7634C9.40871 15.2732 9.23964 14.6901 9.19737 14.0563C9.16355 13.6253 9.16354 13.1858 9.13818 12.6872C9.94138 13.1943 10.77 13.6337 11.3026 14.445C11.8775 15.3324 12.6976 15.924 13.6699 16.3127L14.4562 16.6423C14.4562 16.6761 14.4647 16.7184 14.4647 16.7522C14.1265 16.8367 13.7968 16.955 13.4586 17.0057M5.66326 11.9266C5.45189 10.8955 5.45189 9.81378 5.13907 8.80809C4.82624 7.80239 4.07376 6.8305 3.02536 6.68683C3.28746 6.1544 3.73555 5.72339 4.27666 5.49521C4.4373 5.4276 4.60642 5.37689 4.77552 5.41915C4.94461 5.4614 5.07989 5.58818 5.19826 5.71494C6.26356 6.8305 7.06676 8.19959 7.51487 9.6701C7.66705 7.99676 6.98222 6.27272 5.72245 5.16561C6.40729 4.78531 6.97372 4.19373 7.32037 3.48383C8.36877 4.54023 8.82536 6.26427 9.20583 7.66717C9.42565 8.48693 9.61165 9.31515 9.77229 10.1434C9.82302 10.4138 9.96677 12.2562 10.1612 12.3322C9.59475 12.0871 9.03674 11.8421 8.47026 11.597C8.85073 11.4364 9.14661 11.073 9.2227 10.6673C8.06439 10.9716 6.98218 11.5716 6.11134 12.3914C6.54253 12.7294 7.12594 12.0618 7.66705 12.1548C7.98833 12.2139 8.1997 12.5351 8.25043 12.8562C8.30116 13.1773 8.24196 13.5069 8.23351 13.8281C8.20814 14.9267 8.81689 16.0085 9.77229 16.5494C7.64167 16.1015 6.09446 14.0732 5.66326 11.9266M13.6192 3.75426C13.3656 4.05005 13.0781 4.37966 12.7484 4.77686C12.7061 4.28669 12.6638 3.85568 12.6131 3.36551C12.9851 3.50918 13.3064 3.63594 13.6192 3.75426M28.618 12.628C28.5166 12.9999 28.4321 13.321 28.3391 13.6929C27.984 13.3886 27.6542 13.1013 27.2568 12.7632C27.7388 12.7125 28.153 12.6703 28.618 12.628ZM28.9647 24.3836C27.9079 23.6484 27.4513 22.3046 27.2061 21.0454C26.9609 19.7862 26.8341 18.4424 26.1831 17.3269C25.3714 15.9324 23.8326 15.0958 22.2516 14.7577C20.679 14.4197 19.0388 14.5211 17.4323 14.631C18.8781 12.9069 21.2539 12.0111 23.4776 12.3491C25.7012 12.6872 27.7049 14.2422 28.5842 16.3127C28.6942 16.5747 28.9309 16.9128 29.193 16.786C29.3875 16.6846 29.379 16.4057 29.3452 16.186C29.0155 14.0732 29.5904 11.8336 30.9009 10.1349C30.1484 10.0673 29.7257 10.9378 29.1846 11.4702C28.449 12.197 27.316 12.3407 26.293 12.2139C25.2699 12.0871 24.2808 11.7322 23.2577 11.6223C20.4085 11.3181 17.6183 12.9661 15.8851 15.2479C15.5892 13.7436 16.8236 12.2984 18.244 11.7153C19.6644 11.1322 21.2455 11.1491 22.7673 10.9547C24.4414 10.7434 26.0732 10.2786 27.595 9.56024C28.2883 9.2391 29.0493 8.74892 29.4297 8.06438C29.9877 7.06713 29.4889 6.87275 28.8041 6.26427C27.5781 5.17406 27.2484 3.22184 25.6842 2.48658C25.4644 2.38517 25.2023 2.30911 24.9825 2.40208C24.7796 2.48659 24.6528 2.68096 24.5175 2.85844C24.044 3.50073 23.4014 4.0247 22.6659 4.3543C21.0764 5.07265 19.1741 4.86982 17.6099 5.65578C16.1134 6.40794 15.1664 7.98831 14.7775 9.61939C14.3886 11.2505 14.4731 12.9492 14.5662 14.6225C12.7822 13.059 11.9198 10.4983 12.4102 8.17425C12.8921 5.85017 14.7015 3.84723 16.9673 3.12888C16.6207 2.66406 15.919 2.71477 15.344 2.75703C13.484 2.87534 11.5816 2.2753 10.1274 1.10059C10.0006 1.85274 10.8968 2.30911 11.4379 2.84999C12.1819 3.59369 12.3256 4.75995 12.1819 5.79945C12.0466 6.83895 11.6746 7.84464 11.5732 8.89259C11.2942 11.7068 13.002 14.4028 15.2172 16.1691C13.9067 16.3973 12.6047 15.5014 11.9452 14.3521C11.2857 13.2027 11.1166 11.8336 10.9729 10.5152C10.7784 8.73202 10.6009 6.92346 9.94986 5.25857C9.55248 4.24443 8.96907 3.2641 8.07286 2.63871C7.73467 2.40208 7.26965 2.2246 6.90609 2.42743C6.69472 2.54575 6.56789 2.77392 6.42416 2.97675C5.45186 4.3543 3.44809 4.7177 2.53497 6.12904C2.37433 6.37413 2.25598 6.67838 2.34053 6.95727C2.43353 7.26997 2.7548 7.45589 3.0169 7.65026C4.07375 8.42777 4.52187 9.78842 4.77552 11.073C5.03762 12.3576 5.18979 13.7182 5.87463 14.8338C6.71166 16.186 8.23353 16.9888 9.78921 17.31C11.3449 17.6311 12.9513 17.5213 14.5323 17.4198C13.095 19.1354 10.7446 20.0313 8.53787 19.7017C6.32271 19.3805 4.3274 17.8509 3.4481 15.7972C3.30437 15.4592 2.90696 15.0451 2.67022 15.3324C2.56877 15.4507 2.59413 15.6282 2.6195 15.7803C2.99151 17.9269 2.39968 20.2256 1.03845 21.9243C1.81629 21.9835 2.27287 21.0961 2.84779 20.5637C3.65946 19.7946 4.91077 19.7017 6.01835 19.8791C7.12593 20.0482 8.19971 20.4454 9.31575 20.4961C12.0297 20.6144 14.4055 18.7298 16.2825 16.7691C16.2656 18.6706 14.5154 20.1496 12.6892 20.7158C10.8714 21.2736 8.91837 21.1891 7.0414 21.5018C5.16443 21.8145 3.18599 22.7018 2.43352 24.4512C2.36588 24.6034 2.31515 24.7555 2.33206 24.9245C2.36588 25.3217 2.78015 25.5584 3.10143 25.8034C4.44574 26.8091 4.78396 28.8881 6.29737 29.6065C6.48338 29.691 6.6863 29.7586 6.88076 29.7079C7.19358 29.6318 7.37112 29.3107 7.54867 29.0487C8.30115 27.9754 9.65393 27.5106 10.9475 27.257C12.2326 26.995 13.5854 26.8598 14.7099 26.1837C16.0796 25.3555 16.9082 23.8259 17.2379 22.2624C17.5676 20.6989 17.4661 19.0763 17.3647 17.4875C19.174 19.0256 20.0449 21.5863 19.563 23.9188C19.0726 26.2429 17.2464 28.2374 14.9636 28.9219C15.1326 29.3867 15.7752 29.3783 16.2656 29.336C18.2525 29.1501 20.2985 29.7501 21.8627 30.9756C21.8965 30.1812 21.0003 29.7332 20.4676 29.1501C19.7321 28.3472 19.6306 27.1387 19.7997 26.057C19.9688 24.9752 20.3493 23.9357 20.4169 22.8455C20.586 20.1496 18.8105 17.6987 16.7729 15.924C18.4639 15.6705 19.9603 17.1832 20.493 18.8058C21.0256 20.4285 20.8988 22.1779 21.1609 23.8681C21.423 25.5668 22.0741 27.2063 23.0548 28.6261C23.5198 29.2938 24.3315 29.9783 25.0586 29.6149C25.3883 29.4544 25.5828 29.1078 25.8195 28.829C26.8594 27.5697 28.8463 27.2232 29.5396 25.7443C29.6242 25.5584 29.6918 25.3471 29.6411 25.1442C29.5819 24.7639 29.2437 24.578 28.9647 24.3836" fill="#FF4645"/>
    <path d="M16.8237 25.8795C15.8429 27.7979 14.1942 28.6768 12.2073 29.2684C12.7231 29.6741 13.1712 30.0459 13.6447 30.3924C14.6001 31.1023 15.6738 31.2545 16.8237 31.0685C17.2549 31.0009 17.6945 30.9925 18.1342 30.9671C18.2272 30.9587 18.3286 30.9925 18.54 31.0178C17.6776 31.6855 16.7899 31.9728 15.826 31.9981C14.6931 32.032 13.7208 31.601 12.9006 30.8319C12.4695 30.4262 12.089 29.9614 11.6747 29.5389C11.5986 29.4543 11.4379 29.3783 11.3365 29.4036C10.6601 29.5811 9.96684 29.7332 9.32428 29.9952C8.93536 30.1558 8.63942 30.5192 8.30123 30.7896C8.22513 30.8488 8.08983 30.9502 8.06447 30.9249C7.97992 30.8572 7.8785 30.722 7.89541 30.6544C7.97151 30.3755 8.04759 30.0882 8.19977 29.8516C8.69015 29.0825 9.46797 28.6684 10.2881 28.4064C11.142 28.136 12.0298 27.9585 12.9176 27.8317C14.338 27.6373 15.4962 26.9697 16.5193 26.0232C16.57 25.9809 16.6123 25.9302 16.663 25.8879C16.6461 25.8795 16.663 25.8879 16.8237 25.8795M6.11141 16.6592C5.06301 16.448 4.45426 15.6789 3.93852 14.8845C3.42277 14.0985 3.09305 13.1942 2.63649 12.2731C2.19684 12.9069 1.69801 13.5576 1.26682 14.2422C0.827168 14.9521 0.810256 15.755 0.894804 16.5578C0.945533 17.0564 0.996247 17.5635 1.03852 18.0621C1.04698 18.1805 1.02163 18.3072 0.953994 18.434C0.22688 17.5128 -0.0943821 16.4733 0.0239853 15.3155C0.116988 14.4281 0.488957 13.6506 1.08925 12.9999C1.51199 12.5435 2.00238 12.1547 2.42512 11.7068C2.52658 11.597 2.59425 11.3688 2.56043 11.2251C2.42515 10.6335 2.30676 10.025 2.06157 9.47572C1.87557 9.05316 1.51203 8.71511 1.23302 8.3348C1.16538 8.25029 1.12309 8.14889 1.06391 8.05592C1.17382 8.00522 1.30066 7.88689 1.39366 7.9038C1.64731 7.96295 1.90094 8.05591 2.12076 8.19113C2.87324 8.67285 3.25369 9.43346 3.58343 10.2279C3.97235 11.166 4.0738 12.1716 4.20908 13.1689C4.37817 14.4281 5.01231 15.4761 5.8747 16.3973C5.9677 16.4818 6.03532 16.5663 6.11141 16.6592M30.9263 23.9442C30.8756 24.1977 30.6557 24.1808 30.419 24.1047C29.768 23.9019 29.303 23.4455 28.9563 22.8793C28.3053 21.806 27.9502 20.6397 27.8572 19.389C27.7473 17.9354 27.1216 16.7015 26.1324 15.6451C26.0986 15.6028 26.0563 15.569 26.0225 15.5268C25.9718 15.4676 25.9295 15.4085 25.8788 15.3409C25.8957 15.307 25.921 15.2732 25.938 15.2394C26.2592 15.4338 26.6228 15.5859 26.9018 15.831C28.0263 16.8198 28.7703 18.0537 29.1424 19.5073C29.1593 19.5664 29.1761 19.6256 29.2015 19.6932C29.2607 19.6848 29.3114 19.7017 29.3283 19.6763C29.8103 19.0171 30.3345 18.3748 30.7657 17.6734C31.2391 16.9128 31.1546 16.0423 31.0616 15.1887C31.0108 14.7408 30.9939 14.2845 30.9601 13.8365C30.9517 13.752 30.9855 13.6675 31.0108 13.5323C31.5604 14.014 31.7126 14.6394 31.8648 15.2394C32.2199 16.6423 31.8648 17.91 30.9263 18.9833C30.4951 19.4735 29.9709 19.8876 29.489 20.344C29.4298 20.4031 29.3706 20.5299 29.3875 20.6059C29.582 21.3327 29.7342 22.0764 30.0301 22.7694C30.2161 23.2089 30.605 23.5385 30.9263 23.9442ZM15.2426 6.01918C16.2065 4.24443 17.796 3.30634 19.8251 2.76547C19.2671 2.33446 18.7767 1.9288 18.261 1.54849C17.2802 0.838593 16.1727 0.787896 15.0143 0.965371C14.5493 1.03298 14.0759 1.04142 13.5432 1.07523C13.8476 0.492096 14.3718 0.416042 14.8114 0.263921C16.4601 -0.310761 17.9228 0.0695333 19.1826 1.24425C19.5969 1.633 19.9435 2.08092 20.3493 2.48658C20.4423 2.57954 20.6368 2.63025 20.7636 2.59645C21.4062 2.43587 22.0572 2.2922 22.6575 2.03866C23.0295 1.88654 23.3169 1.5316 23.6551 1.27806C23.7566 1.202 23.8834 1.15129 23.9934 1.09213C24.0356 1.2358 24.1286 1.38793 24.1033 1.51469C23.9426 2.2415 23.4353 2.70632 22.835 3.07817C21.8036 3.71201 20.6622 4.05005 19.4616 4.14302C17.9144 4.26133 16.6208 4.90362 15.5301 5.98537C15.4794 6.03608 15.4033 6.07833 15.3441 6.12904C15.3018 6.09523 15.2765 6.06144 15.2426 6.01918" fill="#FF4645"/>
</svg>
