<svg viewBox="0 0 148 60" fill="none" xmlns="http://www.w3.org/2000/svg">
    <path d="M51.8675 49.76C51.5663 49.871 51.2493 49.9343 50.9481 49.8551C50.631 49.76 50.3932 49.5224 50.1713 49.2847C48.2372 47.1613 46.7787 44.6101 45.9385 41.8687C45.6056 45.0379 46.9056 48.3339 49.331 50.4097C47.9994 51.0911 46.9056 52.232 46.2715 53.5789C42.5461 48.9994 42.4351 42.5977 40.834 36.9089C41.8961 37.3685 42.9741 37.828 44.0363 38.2875C43.3863 38.652 42.9107 39.3175 42.7997 40.0623C44.9398 39.4443 46.9373 38.3509 48.6176 36.9089C47.825 36.0533 46.3983 37.622 45.3203 37.1625C44.4643 36.798 44.5752 35.5779 44.6386 34.6588C44.7813 32.4562 43.6241 30.2061 41.7535 29.0335C46.0496 30.1427 48.7445 33.7873 49.4262 38.034C49.7274 39.9514 49.8225 41.9163 50.5041 43.7386C51.1699 45.5609 52.565 47.2564 54.4673 47.6525C53.8649 48.6033 52.9297 49.3797 51.8675 49.76ZM38.8524 33.0267C37.7903 31.3945 36.316 30.2536 34.5246 29.5247C34.0015 29.3187 33.4782 29.0969 32.9551 28.8909C32.9393 28.7958 32.9393 28.7166 32.9235 28.6215C33.732 28.4472 34.5404 28.162 35.3489 28.0986C37.8853 27.9084 40.073 28.7483 41.7217 30.7132C42.1498 31.2202 42.4668 31.9174 42.5936 32.5671C42.8156 33.7556 42.8314 34.9599 42.9582 36.3227C41.3888 35.3244 39.8353 34.5479 38.8524 33.0267ZM31.893 34.8965C32.1942 37.5586 31.465 39.8721 29.4041 41.6786C28.5798 42.4075 27.5969 42.6927 26.5348 42.7561C25.647 42.8037 24.7434 42.8512 23.7764 42.8987C24.6483 41.4251 25.4568 39.9197 26.9152 38.9689C28.6432 37.828 29.8321 36.2909 30.5931 34.4053C30.7833 33.9299 30.9894 33.4545 31.1796 32.9791C31.243 32.9791 31.3223 32.9633 31.3857 32.9633C31.5442 33.5971 31.8137 34.231 31.893 34.8965ZM25.7897 48.2864C23.4435 49.3639 20.7802 49.3956 18.2597 49.9502C15.7391 50.5048 13.0757 51.8834 12.3465 54.3554C11.5222 53.8483 10.6503 53.2779 10.3491 52.3588C10.0479 51.4397 10.4442 50.4097 11.11 49.6966C11.7759 48.9836 12.6636 48.5399 13.5197 48.112C15.0891 47.3197 16.6744 46.5275 18.2438 45.751C15.0574 46.0679 11.4588 46.6859 9.69912 49.3481C8.93819 48.0011 7.76506 46.8919 6.40172 46.1947C6.38587 46.1947 6.37008 46.1789 6.37008 46.1789C11.3637 43.0255 17.3401 41.9638 23.1581 40.9497C22.6825 42.0114 22.2228 43.073 21.7631 44.1347C21.446 43.4375 20.7644 42.9146 20.0034 42.8037C20.6217 44.9587 21.7472 46.9712 23.2532 48.6508C23.9507 47.8585 22.6191 46.7176 22.7935 45.6876C22.9045 45.0855 23.5069 44.6893 24.1093 44.5943C24.7117 44.4992 25.3141 44.6101 25.9323 44.6259C27.9456 44.6893 29.4992 43.6435 30.7992 42.249C30.3711 44.8002 28.1201 47.2088 25.7897 48.2864ZM34.5404 52.9451C34.9526 52.4697 35.4915 51.8359 36.1257 51.1228C36.2049 52.0102 36.2842 52.8025 36.3794 53.7215C35.6977 53.4363 35.1269 53.1828 34.5404 52.9451ZM28.8017 27.2746C27.8347 25.2463 27.8188 23.2814 28.5164 21.364C29.7053 18.1314 31.8296 17.0222 36.2684 17.1807C35.2062 18.8287 34.2868 20.3974 32.6381 21.4591C31.1797 22.394 30.1809 23.8202 29.531 25.4523C29.309 26.0069 29.087 26.5457 28.8017 27.2746ZM28.9603 18.4167C29.8322 14.4869 33.4466 11.5554 37.3781 10.7155C39.3597 10.2877 41.4363 10.3194 43.3704 9.73308C45.3203 9.14678 47.2227 7.73646 47.4922 5.72402C48.6177 6.16771 50.2664 7.76815 49.775 9.11506C49.5372 9.7489 48.9982 10.2243 48.475 10.6521C46.4776 12.2209 44.1789 13.4093 41.7535 14.1699C44.9557 14.5027 48.2847 13.2033 50.3932 10.7631C51.1224 12.0941 52.2638 13.2033 53.6113 13.8847C48.7287 17.1331 42.7204 18.1473 36.9342 19.0664C37.3939 18.0364 37.8536 17.0064 38.2975 15.9764C38.6145 16.6736 39.2963 17.1807 40.0572 17.3075C39.4548 15.1366 38.3293 13.1083 36.8074 11.4444C36.1416 12.316 37.5207 13.5044 37.2354 14.5502C37.0927 15.089 36.522 15.4218 35.9513 15.5169C35.3965 15.5961 34.8257 15.501 34.255 15.4693C32.1149 15.3742 29.9748 16.5785 28.9285 18.4642C28.9444 18.4325 28.9444 18.4325 28.9603 18.4167ZM6.33835 36.386C6.57614 35.7205 6.7822 35.1342 7.00413 34.4845C7.57483 34.9757 8.209 35.5145 8.93822 36.1325C8.03461 36.2117 7.21025 36.2909 6.33835 36.386ZM25.2348 31.8858C22.6033 32.2502 20.3204 31.5372 18.4815 29.5564C17.6413 28.6373 17.3243 27.544 17.2451 26.3555C17.1816 25.5474 17.1816 24.7234 17.1341 23.7885C18.6401 24.7392 20.1937 25.5632 21.1924 27.0844C22.2704 28.7483 23.8081 29.8575 25.6311 30.5864C26.1226 30.7924 26.614 30.9984 27.1054 31.2044C27.1054 31.2678 27.1213 31.347 27.1213 31.4104C26.4872 31.5688 25.8689 31.7907 25.2348 31.8858ZM10.6186 22.3623C10.2223 20.4291 10.2223 18.4008 9.63575 16.5152C9.0492 14.6295 7.6383 12.8072 5.67256 12.5378C6.16399 11.5395 7.00416 10.7314 8.01873 10.3035C8.31994 10.1767 8.63704 10.0817 8.95409 10.1609C9.27115 10.2401 9.52479 10.4778 9.74673 10.7155C11.7442 12.8072 13.2502 15.3742 14.0904 18.1314C14.3757 14.9939 13.0917 11.7613 10.7296 9.68552C12.0137 8.97245 13.0757 7.86324 13.7257 6.53218C15.6914 8.51293 16.5476 11.7455 17.2609 14.3759C17.6731 15.913 18.0218 17.4659 18.323 19.0188C18.4182 19.5259 18.6877 22.9803 19.0523 23.1229C17.9902 22.6634 16.9439 22.2039 15.8817 21.7443C16.5951 21.4432 17.1499 20.7619 17.2926 20.0013C15.1207 20.5717 13.0916 21.6968 11.4588 23.2338C12.2672 23.8677 13.3611 22.6159 14.3757 22.7902C14.9781 22.9011 15.3744 23.5032 15.4696 24.1054C15.5647 24.7075 15.4537 25.3255 15.4378 25.9277C15.3903 27.9876 16.5317 30.0159 18.323 31.0301C14.3281 30.1902 11.4271 26.3872 10.6186 22.3623ZM25.536 7.03924C25.0604 7.59385 24.5215 8.21185 23.9032 8.95662C23.824 8.03755 23.7447 7.2294 23.6495 6.31034C24.3471 6.57972 24.9495 6.8174 25.536 7.03924ZM53.6588 23.6775C53.4686 24.3748 53.3101 24.9769 53.1357 25.6741C52.4699 25.1037 51.8516 24.5649 51.1065 23.9311C52.0102 23.836 52.7869 23.7568 53.6588 23.6775ZM54.3088 45.7193C52.3272 44.3407 51.4712 41.8212 51.0114 39.4602C50.5517 37.0991 50.314 34.5796 49.0933 32.4879C47.5714 29.8733 44.6862 28.3046 41.7217 27.6707C38.7731 27.0369 35.6977 27.2271 32.6856 27.433C35.3965 24.2005 39.8511 22.5208 44.0204 23.1546C48.1897 23.7885 51.9468 26.7041 53.5954 30.5864C53.8015 31.0776 54.2455 31.7114 54.7369 31.4738C55.1015 31.2836 55.0856 30.7607 55.0222 30.3487C54.404 26.3872 55.4819 22.188 57.9391 19.003C56.5282 18.8762 55.7356 20.5083 54.721 21.5066C53.3418 22.8694 51.2175 23.1388 49.2993 22.9011C47.3811 22.6634 45.5264 21.9979 43.6082 21.7919C38.2658 21.2214 33.0344 24.3114 29.7846 28.5898C29.2297 25.7692 31.5443 23.0595 34.2075 21.9662C36.8708 20.8728 39.8352 20.9045 42.6887 20.54C45.8276 20.1439 48.8872 19.2724 51.7407 17.9255C53.0406 17.3233 54.4673 16.4042 55.1807 15.1207C56.227 13.2509 55.2917 12.8864 54.0076 11.7455C51.709 9.70137 51.0907 6.04094 48.158 4.66234C47.7458 4.47219 47.2543 4.32959 46.8421 4.5039C46.4617 4.66235 46.2239 5.0268 45.9703 5.35957C45.0825 6.56386 43.8777 7.54632 42.4985 8.16432C39.5182 9.51122 35.9513 9.13091 33.0186 10.6046C30.2126 12.0149 28.4371 14.9781 27.7078 18.0364C26.9786 21.0946 27.1371 24.2797 27.3115 27.4172C23.9666 24.4857 22.3496 19.6844 23.2691 15.3267C24.1727 10.9691 27.5652 7.21356 31.8138 5.86665C31.1638 4.99512 29.848 5.09019 28.77 5.16942C25.2824 5.39127 21.7155 4.26619 18.9888 2.0636C18.751 3.47389 20.4315 4.32959 21.4461 5.34373C22.8411 6.73818 23.1105 8.92491 22.841 10.874C22.5874 12.823 21.8899 14.7087 21.6997 16.6736C21.1765 21.9503 24.3788 27.0052 28.5322 30.317C26.075 30.7448 23.6337 29.0652 22.3972 26.9101C21.1607 24.7551 20.8436 22.188 20.5741 19.716C20.2095 16.3725 19.8766 12.9815 18.656 9.85982C17.9109 7.9583 16.817 6.12018 15.1366 4.94758C14.5025 4.50389 13.6306 4.17113 12.9489 4.55143C12.5526 4.77327 12.3148 5.20111 12.0453 5.58141C10.2222 8.16431 6.46517 8.84568 4.75307 11.492C4.45187 11.9515 4.22996 12.522 4.38849 13.0449C4.56287 13.6312 5.16525 13.9798 5.65669 14.3442C7.63828 15.8021 8.47851 18.3533 8.95409 20.7619C9.44553 23.1705 9.73086 25.7217 11.0149 27.8133C12.5844 30.3487 15.4379 31.8541 18.3548 32.4562C21.2717 33.0584 24.2837 32.8524 27.2481 32.6622C24.5532 35.8789 20.1461 37.5586 16.0085 36.9406C11.8551 36.3385 8.11388 33.4704 6.46519 29.6198C6.1957 28.9859 5.45055 28.2095 5.00667 28.7483C4.81644 28.9701 4.864 29.3029 4.91156 29.5881C5.60908 33.613 4.49939 37.9231 1.9471 41.1081C3.40555 41.219 4.26163 39.5552 5.33961 38.5569C6.86148 37.1149 9.20769 36.9406 11.2844 37.2734C13.3611 37.5903 15.3745 38.3351 17.467 38.4301C22.5558 38.652 27.0104 35.1184 30.5297 31.4421C30.498 35.0074 27.2165 37.7805 23.7923 38.8422C20.3839 39.888 16.7219 39.7295 13.2026 40.3158C9.68331 40.9021 5.97374 42.566 4.56284 45.8461C4.43602 46.1313 4.34091 46.4165 4.37262 46.7335C4.43603 47.4782 5.21277 47.9219 5.81518 48.3815C8.33577 50.2671 8.96992 54.1652 11.8076 55.5121C12.1563 55.6706 12.5368 55.7974 12.9014 55.7023C13.488 55.5597 13.8208 54.9575 14.1537 54.4663C15.5646 52.4539 18.1011 51.5823 20.5266 51.1069C22.9362 50.6157 25.4727 50.3622 27.5811 49.0945C30.1492 47.5416 31.7028 44.6735 32.3211 41.742C32.9393 38.8105 32.749 35.768 32.5588 32.789C35.9513 35.6729 37.5842 40.4743 36.6806 44.8478C35.7611 49.2054 32.3369 52.9451 28.0567 54.2286C28.3737 55.1001 29.5785 55.0843 30.4979 55.0051C34.2233 54.6565 38.0597 55.7815 40.9925 58.0792C41.0559 56.5897 39.3755 55.7498 38.3768 54.6565C36.9976 53.1511 36.8073 50.8851 37.1244 48.8568C37.4414 46.8285 38.1549 44.8795 38.2817 42.8354C38.5988 37.7805 35.2697 33.1851 31.4492 29.8575C34.6197 29.3821 37.4256 32.2185 38.4243 35.2609C39.4231 38.3034 39.1853 41.5835 39.6768 44.7527C40.1682 47.9378 41.3888 51.0119 43.2278 53.674C44.0997 54.9258 45.6215 56.2094 46.9849 55.528C47.6031 55.2269 47.9677 54.5772 48.4116 54.0543C50.3614 51.6932 54.0869 51.0436 55.3868 48.2705C55.5453 47.9219 55.6722 47.5257 55.577 47.1454C55.4661 46.4324 54.832 46.0838 54.3088 45.7193Z" fill="#FF4645"/>
    <path d="M31.5444 48.5241C29.7055 52.1211 26.6142 53.7691 22.8888 54.8783C23.8558 55.639 24.696 56.3362 25.5838 56.9859C27.3751 58.3169 29.3885 58.6022 31.5444 58.2535C32.3529 58.1268 33.1772 58.1109 34.0016 58.0634C34.176 58.0476 34.3662 58.1109 34.7625 58.1585C33.1455 59.4103 31.481 59.9491 29.6738 59.9966C27.5495 60.06 25.7264 59.2518 24.1887 57.8099C23.3802 57.0493 22.6668 56.1777 21.8901 55.3854C21.7474 55.227 21.4461 55.0843 21.2559 55.1319C19.9877 55.4647 18.6878 55.7499 17.483 56.2411C16.7538 56.5422 16.1989 57.2236 15.5648 57.7306C15.4221 57.8415 15.1684 58.0317 15.1209 57.9842C14.9624 57.8574 14.7722 57.6039 14.8039 57.4771C14.9466 56.9542 15.0892 56.4154 15.3746 55.9717C16.294 54.5297 17.7525 53.7533 19.2902 53.262C20.8913 52.755 22.5559 52.4222 24.2205 52.1845C26.8837 51.8201 29.0555 50.5682 30.9737 48.7935C31.0688 48.7143 31.1481 48.6192 31.2432 48.5399C31.2115 48.5241 31.2432 48.54 31.5444 48.5241Z" fill="#FF4645"/>
    <path d="M11.4589 31.2361C9.49314 30.8399 8.35173 29.3979 7.38471 27.9084C6.4177 26.4347 5.79947 24.7392 4.94342 23.012C4.11908 24.2005 3.18377 25.4206 2.37528 26.7041C1.55094 28.0352 1.51923 29.5406 1.67776 31.0459C1.77287 31.9808 1.86796 32.9316 1.94723 33.8665C1.96308 34.0884 1.91556 34.3261 1.78874 34.5637C0.4254 32.8365 -0.176966 30.8875 0.0449724 28.7166C0.219353 27.0527 0.916793 25.5949 2.04234 24.3748C2.83498 23.5191 3.75447 22.7902 4.5471 21.9503C4.73734 21.7443 4.86421 21.3165 4.8008 21.0471C4.54716 19.9379 4.32518 18.797 3.86545 17.767C3.51669 16.9747 2.83505 16.3408 2.31191 15.6278C2.18508 15.4693 2.1058 15.2792 1.99483 15.1049C2.20092 15.0098 2.43873 14.7879 2.61311 14.8196C3.0887 14.9306 3.56426 15.1049 3.97643 15.3584C5.38732 16.2616 6.10067 17.6878 6.71893 19.1773C7.44815 20.9362 7.63837 22.8218 7.89202 24.6917C8.20907 27.0527 9.39808 29.0176 11.0151 30.7449C11.1894 30.9033 11.3162 31.0618 11.4589 31.2361Z" fill="#FF4645"/>
    <path d="M57.9869 44.8953C57.8918 45.3707 57.4795 45.339 57.0356 45.1964C55.815 44.8161 54.9431 43.9604 54.2932 42.8987C53.0725 40.8863 52.4067 38.6995 52.2323 36.3543C52.0262 33.6288 50.8531 31.3153 48.9983 29.3345C48.9349 29.2553 48.8557 29.1919 48.7923 29.1127C48.6972 29.0018 48.6178 28.8909 48.5227 28.7641C48.5544 28.7007 48.602 28.6373 48.6337 28.5739C49.2361 28.9384 49.9178 29.2236 50.4409 29.6832C52.5494 31.5371 53.9444 33.8506 54.642 36.5762C54.6737 36.6871 54.7053 36.798 54.7528 36.9248C54.8638 36.9089 54.959 36.9406 54.9907 36.8931C55.8943 35.6571 56.8772 34.4528 57.6857 33.1376C58.5734 31.7114 58.4149 30.0793 58.2405 28.4788C58.1454 27.639 58.1137 26.7833 58.0502 25.9435C58.0344 25.785 58.0978 25.6266 58.1454 25.373C59.1758 26.2763 59.4612 27.4489 59.7465 28.5739C60.4123 31.2044 59.7465 33.5813 57.9869 35.5937C57.1784 36.5128 56.1955 37.2892 55.2919 38.1449C55.1809 38.2558 55.07 38.4935 55.1017 38.6361C55.4663 39.9989 55.7516 41.3933 56.3065 42.6927C56.6552 43.5167 57.3845 44.1347 57.9869 44.8953Z" fill="#FF4645"/>
    <path d="M28.5799 11.286C30.3871 7.95831 33.3674 6.19939 37.1721 5.18525C36.1258 4.37711 35.2063 3.61649 34.2392 2.90342C32.4003 1.57236 30.3237 1.47731 28.1518 1.81007C27.2799 1.93684 26.3922 1.95267 25.3935 2.01605C25.9642 0.922679 26.947 0.780079 27.7714 0.494851C30.8627 -0.582676 33.6052 0.130375 35.9672 2.33297C36.744 3.06188 37.394 3.90172 38.1549 4.66233C38.3293 4.83664 38.6939 4.93172 38.9317 4.86834C40.1365 4.56726 41.3572 4.29787 42.4827 3.82249C43.1802 3.53727 43.7192 2.87174 44.3533 2.39637C44.5435 2.25375 44.7814 2.15867 44.9875 2.04775C45.0667 2.31713 45.2411 2.60236 45.1936 2.84005C44.8924 4.20281 43.9412 5.07435 42.8156 5.77157C40.8816 6.96002 38.7415 7.59385 36.4904 7.76816C33.5893 7.99 31.1638 9.19428 29.1188 11.2226C29.0237 11.3176 28.8811 11.3969 28.7701 11.4919C28.6909 11.4286 28.6433 11.3652 28.5799 11.286Z" fill="#FF4645"/>
    <path d="M143.81 19.1243C143.81 17.4875 143.81 16.106 143.81 14.6344C144.746 14.6344 145.582 14.6344 146.475 14.6344C146.475 22.0675 146.475 29.4857 146.475 36.9638C145.639 36.9638 144.831 36.9638 143.881 36.9638C143.881 35.5223 143.881 34.0807 143.881 32.3838C143.087 33.3449 142.548 34.1708 141.868 34.8315C138.891 37.6246 135.403 37.985 131.802 36.6936C128.116 35.3721 126.146 32.3388 125.479 28.3594C125.011 25.5664 125.182 22.8033 126.33 20.2055C127.847 16.7517 130.441 14.7695 134 14.3491C137.827 13.8986 141.102 14.9798 143.342 18.5387C143.427 18.6738 143.541 18.7939 143.81 19.1243ZM128.059 25.7616C128.059 26.122 128.045 26.4824 128.059 26.8427C128.371 32.2637 132.582 35.7175 137.601 34.6813C141.046 33.9756 143.399 30.9422 143.81 26.6776C144.448 20.0703 139.188 15.2351 133.39 17.1121C130.016 18.2083 128.031 21.3918 128.059 25.7616Z" fill="white"/>
    <path d="M135.644 38C134.368 38 133.021 37.7447 131.618 37.2492C127.932 35.9277 125.678 32.9695 124.926 28.4645C124.402 25.3561 124.699 22.503 125.819 19.9652C127.436 16.3012 130.158 14.229 133.929 13.7785C137.941 13.313 141.074 14.5443 143.243 17.4425V14.0638H147V37.5495H143.314V34.0056C142.959 34.4711 142.605 34.8916 142.208 35.267C140.28 37.084 138.083 38 135.644 38ZM135.587 14.8296C135.105 14.8296 134.595 14.8597 134.07 14.9197C130.711 15.3102 128.272 17.1722 126.826 20.4458C125.805 22.7583 125.536 25.3862 126.018 28.2543C126.698 32.3088 128.712 34.9667 131.986 36.1379C135.658 37.4594 138.862 36.8738 141.513 34.381C141.939 33.9756 142.322 33.4951 142.747 32.9244C142.974 32.6241 143.215 32.3238 143.47 31.9934L144.434 30.8221V36.3782H145.937V15.2201H144.363V20.686L143.158 19.2144C143.03 19.0643 142.959 18.9742 142.889 18.869C141.187 16.1661 138.791 14.8296 135.587 14.8296ZM135.843 35.4472C133.957 35.4472 132.185 34.8315 130.753 33.6452C128.839 32.0685 127.691 29.6659 127.535 26.8728C127.521 26.6175 127.521 26.3472 127.521 26.0919V25.7616C127.492 21.1666 129.633 17.7278 133.234 16.5565C136.098 15.6255 139.004 16.1961 141.216 18.1182C143.512 20.1154 144.689 23.3439 144.363 26.7226C143.923 31.2126 141.386 34.4862 137.714 35.237C137.076 35.3871 136.452 35.4472 135.843 35.4472ZM135.913 17.2923C135.134 17.2923 134.34 17.4124 133.546 17.6677C130.384 18.6888 128.584 21.6471 128.612 25.7616V26.122C128.612 26.3472 128.598 26.5875 128.612 26.8128C128.754 29.2755 129.746 31.3777 131.419 32.7442C133.078 34.0957 135.247 34.5913 137.501 34.1258C140.72 33.465 142.874 30.6569 143.271 26.6325C143.569 23.5842 142.563 20.8212 140.521 19.0342C139.203 17.878 137.586 17.2923 135.913 17.2923Z" fill="white"/>
    <path d="M88.8598 26.8579C82.9905 26.8579 77.2062 26.8579 71.4362 26.8579C70.9258 30.0414 73.3359 33.6603 76.6108 34.6063C80.2685 35.6575 84.4224 34.4111 85.7975 29.9963C86.6907 29.9963 87.5981 29.9963 88.6188 29.9963C87.8958 32.9545 86.2796 35.1319 83.7135 36.3032C77.3055 39.2314 68.8276 36.1981 68.5583 26.3773C68.5157 24.7556 68.7142 23.0437 69.1537 21.482C70.2311 17.6828 72.7121 15.3102 76.4123 14.5444C80.1551 13.7786 83.6285 14.3642 86.393 17.4426C88.7464 20.0855 89.2142 23.314 88.8598 26.8579ZM86.1803 24.5303C86.2512 21.7523 85.4006 19.5148 83.2457 18.0732C80.5237 16.2563 77.6316 16.1211 74.8245 17.863C72.4711 19.3196 71.422 21.6321 71.3228 24.5453C76.2848 24.5303 81.1475 24.5303 86.1803 24.5303Z" fill="white"/>
    <path d="M78.8508 37.955C76.6675 37.955 74.5551 37.3543 72.783 36.153C69.82 34.1558 68.1187 30.687 68.0053 26.3923C67.9628 24.6805 68.1755 22.9235 68.6291 21.3168C69.7633 17.3074 72.4144 14.7696 76.299 13.9737C80.6938 13.0727 84.1105 14.0789 86.7757 17.0521C88.9874 19.5298 89.8239 22.6532 89.3985 26.9179L89.3418 27.4435H71.9182C71.7481 30.2365 73.903 33.2398 76.7525 34.0507C80.0558 34.9967 83.9687 34.0507 85.273 29.8161L85.4006 29.4106H89.3135L89.1292 30.1314C88.3353 33.3449 86.5915 35.5974 83.912 36.8288C82.2958 37.5796 80.5662 37.955 78.8508 37.955ZM79.2194 14.8146C78.3688 14.8146 77.4614 14.9198 76.5116 15.115C72.9956 15.8358 70.699 18.0432 69.6782 21.6471C69.2529 23.1338 69.0545 24.7705 69.097 26.3623C69.2388 31.3628 71.4929 33.9156 73.3785 35.1769C76.2281 37.099 80.0983 37.3243 83.5008 35.7626C85.6416 34.7865 87.116 33.0296 87.8958 30.5669H86.1945C84.55 35.1469 80.0558 36.183 76.4832 35.1619C72.9531 34.1558 70.3445 30.2365 70.9116 26.7677L70.9826 26.2872H88.3636C88.6329 22.6532 87.8816 19.9653 85.9818 17.848C84.1813 15.8208 81.9414 14.8146 79.2194 14.8146ZM86.7049 25.1009H70.7415L70.7699 24.5002C70.8833 21.2267 72.1592 18.809 74.5409 17.3374C77.4898 15.5204 80.5946 15.5955 83.5292 17.5627C85.7267 19.0343 86.8041 21.3768 86.7191 24.5303L86.7049 25.1009ZM71.8898 23.9446H85.6274C85.5707 21.482 84.6918 19.71 82.948 18.5538C80.3394 16.8118 77.7024 16.7368 75.0939 18.3435C73.1658 19.5298 72.1167 21.3618 71.8898 23.9446Z" fill="white"/>
    <path d="M96.6855 27.0981C96.6855 30.5369 96.6855 33.7354 96.6855 36.9789C95.7356 36.9789 94.8992 36.9789 94.0061 36.9789C94.0061 26.8729 94.0061 16.8119 94.0061 6.6007C94.7433 6.6007 95.4521 6.58568 96.1609 6.6007C96.884 6.61572 96.6997 7.21638 96.6997 7.63684C96.7139 12.6824 96.6997 17.7429 96.6997 22.7884C96.6997 23.2539 96.6997 23.7044 96.6997 24.1699C96.8131 24.26 96.9124 24.3501 97.0258 24.4402C97.2526 24.1099 97.4369 23.7345 97.6921 23.4341C99.9604 20.7462 102.271 18.0883 104.525 15.3853C105.022 14.7997 105.504 14.4843 106.269 14.5594C107.106 14.6345 107.956 14.5744 109.048 14.5744C105.617 18.3886 102.342 22.0376 98.9823 25.7617C102.314 29.4707 105.617 33.1347 109.105 37.009C107.786 37.009 106.68 37.054 105.589 36.9789C105.319 36.9639 105.05 36.5735 104.823 36.3182C102.413 33.5552 100.031 30.7922 97.6212 28.0442C97.3944 27.7889 97.1392 27.5486 96.6855 27.0981Z" fill="white"/>
    <path d="M107.134 37.5946C106.595 37.5946 106.071 37.5796 105.546 37.5495C105.093 37.5195 104.781 37.1441 104.525 36.8287L104.426 36.7086C103.009 35.0868 101.591 33.45 100.173 31.8133L97.2384 28.4346V37.5345H93.4532V6H94.6724C95.1828 6 95.679 6 96.161 6C96.5296 6 96.8132 6.12013 96.9975 6.34537C97.2952 6.69075 97.2668 7.12623 97.2384 7.42656C97.2384 7.48662 97.2243 7.54668 97.2243 7.60675C97.2384 11.5861 97.2384 15.5655 97.2243 19.5448V23.0587C97.2384 23.0437 97.2526 23.0286 97.2668 23.0136C98.1033 22.0225 98.9397 21.0315 99.7903 20.0554C101.236 18.3585 102.668 16.6767 104.1 14.9648C104.54 14.4392 105.192 13.8536 106.298 13.9437C106.836 13.9887 107.389 13.9737 108.041 13.9737C108.353 13.9737 108.679 13.9587 109.034 13.9587H110.31L99.7336 25.7316L110.366 37.5645H108.041C107.744 37.5946 107.432 37.5946 107.134 37.5946ZM96.1469 25.7466L97.4795 27.0981C97.7063 27.3233 97.8764 27.4885 98.0324 27.6687L100.981 31.0624C102.399 32.6992 103.817 34.321 105.234 35.9428L105.348 36.0779C105.433 36.183 105.603 36.3782 105.674 36.4233C106.34 36.4683 107.035 36.4533 107.843 36.4533L98.2309 25.7766L107.758 15.175C107.219 15.1901 106.723 15.1901 106.227 15.145C105.702 15.1 105.362 15.2651 104.937 15.7757C103.505 17.4876 102.073 19.1844 100.627 20.8663C99.7903 21.8573 98.9397 22.8334 98.1032 23.8245C97.9473 24.0047 97.8197 24.23 97.6921 24.4402C97.6212 24.5603 97.5504 24.6654 97.4795 24.7856L97.1534 25.2811L96.161 24.4702V19.5899C96.161 15.6105 96.161 11.6312 96.161 7.65179C96.161 7.5617 96.161 7.47161 96.1752 7.38151C96.1752 7.33646 96.1894 7.26136 96.1894 7.2013C95.6364 7.18628 95.1686 7.18629 94.7008 7.18629H94.5731V36.4083H96.161V25.7466H96.1469Z" fill="white"/>
    <path d="M113.429 16.9619C112.38 16.9619 111.501 16.9619 110.565 16.9619C110.565 16.151 110.565 15.4453 110.565 14.6194C111.444 14.6194 112.351 14.6194 113.4 14.6194C113.4 12.6973 113.4 10.8803 113.4 9.00323C114.379 9.00323 115.215 9.00323 116.179 9.00323C116.179 10.8052 116.179 12.6222 116.179 14.5593C118.164 14.5593 120.021 14.5593 121.949 14.5593C121.949 15.3702 121.949 16.076 121.949 16.9319C120.078 16.9319 118.22 16.9319 116.278 16.9319C116.25 17.4575 116.222 17.8329 116.222 18.2083C116.222 22.503 116.222 26.7977 116.222 31.0924C116.222 33.5851 116.831 34.3209 119.17 34.5462C120.078 34.6363 120.985 34.6513 121.963 34.7114C121.963 35.4922 121.963 36.183 121.963 37.1891C120.149 37.0089 118.334 37.0389 116.604 36.6185C114.464 36.1079 113.471 34.2459 113.457 31.3177C113.443 26.9929 113.457 22.6532 113.457 18.3284C113.429 17.908 113.429 17.5175 113.429 16.9619Z" fill="white"/>
    <path d="M122.488 37.8048L121.892 37.7447C121.339 37.6847 120.787 37.6546 120.234 37.6246C118.986 37.5495 117.696 37.4594 116.463 37.1741C114.846 36.7987 112.904 35.4622 112.89 31.3027C112.876 28.2543 112.876 25.191 112.89 22.1427V17.5326H110.026V14.0338H112.862V8.41763H116.732V13.9737H122.502V17.5026H116.789C116.775 17.7578 116.76 17.9831 116.76 18.2083C116.76 22.503 116.76 26.7977 116.76 31.0924C116.76 33.3149 117.157 33.7654 119.213 33.9606C119.823 34.0206 120.432 34.0507 121.056 34.0807L122.502 34.1558V37.8048H122.488ZM111.118 16.3763H113.982V22.1427C113.982 25.191 113.982 28.2543 113.982 31.3027C113.996 34.0657 114.875 35.6124 116.689 36.0479C117.838 36.3182 119.029 36.3932 120.29 36.4683C120.659 36.4984 121.028 36.5134 121.396 36.5434V35.252L120.999 35.237C120.347 35.207 119.723 35.1769 119.1 35.1169C116.491 34.8616 115.654 33.8855 115.654 31.0924C115.654 26.7977 115.654 22.503 115.654 18.2083C115.654 17.938 115.669 17.6828 115.683 17.3674L115.74 16.3463H121.382V15.13H115.612V9.57388H113.925V15.19H111.089V16.3763H111.118Z" fill="white"/>
    <path d="M108.08 45H107.023C106.96 44.696 106.851 44.429 106.695 44.1989C106.541 43.9688 106.354 43.7756 106.132 43.6193C105.913 43.4602 105.67 43.3409 105.403 43.2614C105.136 43.1818 104.858 43.142 104.568 43.142C104.04 43.142 103.561 43.2756 103.132 43.5426C102.706 43.8097 102.366 44.2031 102.114 44.723C101.864 45.2429 101.739 45.8807 101.739 46.6364C101.739 47.392 101.864 48.0298 102.114 48.5497C102.366 49.0696 102.706 49.4631 103.132 49.7301C103.561 49.9972 104.04 50.1307 104.568 50.1307C104.858 50.1307 105.136 50.0909 105.403 50.0114C105.67 49.9318 105.913 49.8139 106.132 49.6577C106.354 49.4986 106.541 49.304 106.695 49.0739C106.851 48.8409 106.96 48.5739 107.023 48.2727H108.08C108 48.7187 107.855 49.1179 107.645 49.4702C107.435 49.8224 107.173 50.1222 106.861 50.3693C106.548 50.6136 106.197 50.7997 105.808 50.9276C105.422 51.0554 105.009 51.1193 104.568 51.1193C103.824 51.1193 103.162 50.9375 102.582 50.5739C102.003 50.2102 101.547 49.6932 101.214 49.0227C100.882 48.3523 100.716 47.5568 100.716 46.6364C100.716 45.7159 100.882 44.9205 101.214 44.25C101.547 43.5795 102.003 43.0625 102.582 42.6989C103.162 42.3352 103.824 42.1534 104.568 42.1534C105.009 42.1534 105.422 42.2173 105.808 42.3452C106.197 42.473 106.548 42.6605 106.861 42.9077C107.173 43.152 107.435 43.4503 107.645 43.8026C107.855 44.152 108 44.5511 108.08 45ZM112.187 51V42.2727H113.244V50.0625H117.301V51H112.187ZM122.246 51H121.138L124.343 42.2727H125.434L128.638 51H127.53L124.922 43.6534H124.854L122.246 51ZM122.655 47.5909H127.121V48.5284H122.655V47.5909ZM133.454 42.2727V51H132.397V42.2727H133.454ZM137.973 42.2727H139.235L142.2 49.517H142.303L145.269 42.2727H146.53V51H145.541V44.3693H145.456L142.729 51H141.774L139.047 44.3693H138.962V51H137.973V42.2727Z" fill="#FF4645"/>
</svg>
